<mxfile host="Electron" agent="Mozilla/5.0 (Windows NT 10.0; Win64; x64) AppleWebKit/537.36 (KHTML, like Gecko) draw.io/28.0.4 Chrome/138.0.7204.97 Electron/37.2.1 Safari/537.36" version="28.0.4">
  <diagram name="Page-1" id="NoxIy_ImIk-5bVw1UlII">
    <mxGraphModel dx="1349" dy="760" grid="1" gridSize="10" guides="1" tooltips="1" connect="1" arrows="1" fold="1" page="1" pageScale="1" pageWidth="1400" pageHeight="850" math="0" shadow="0">
      <root>
        <mxCell id="0" />
        <mxCell id="1" parent="0" />
        <mxCell id="O-ws_NPDMg6LXlj5JLhv-1" value="" style="rounded=.4;whiteSpace=wrap;html=1;arcSize=50;fillColor=#DFFFF1;strokeColor=#66B2FF;" parent="1" vertex="1">
          <mxGeometry x="294" y="80" width="226" height="280" as="geometry" />
        </mxCell>
        <object label="" id="O-ws_NPDMg6LXlj5JLhv-2">
          <mxCell style="rounded=1;whiteSpace=wrap;html=1;" parent="1" vertex="1">
            <mxGeometry x="310" y="147" width="40" height="40" as="geometry" />
          </mxCell>
        </object>
        <mxCell id="O-ws_NPDMg6LXlj5JLhv-3" value="" style="rounded=1;whiteSpace=wrap;html=1;" parent="1" vertex="1">
          <mxGeometry x="360" y="147" width="40" height="40" as="geometry" />
        </mxCell>
        <mxCell id="O-ws_NPDMg6LXlj5JLhv-4" value="" style="rounded=1;whiteSpace=wrap;html=1;" parent="1" vertex="1">
          <mxGeometry x="411" y="147" width="40" height="40" as="geometry" />
        </mxCell>
        <mxCell id="O-ws_NPDMg6LXlj5JLhv-5" value="" style="rounded=1;whiteSpace=wrap;html=1;" parent="1" vertex="1">
          <mxGeometry x="460" y="147" width="40" height="40" as="geometry" />
        </mxCell>
        <mxCell id="O-ws_NPDMg6LXlj5JLhv-8" value="" style="rounded=1;whiteSpace=wrap;html=1;" parent="1" vertex="1">
          <mxGeometry x="310" y="191" width="40" height="40" as="geometry" />
        </mxCell>
        <mxCell id="O-ws_NPDMg6LXlj5JLhv-9" value="" style="rounded=1;whiteSpace=wrap;html=1;" parent="1" vertex="1">
          <mxGeometry x="360" y="191" width="40" height="40" as="geometry" />
        </mxCell>
        <mxCell id="O-ws_NPDMg6LXlj5JLhv-10" value="" style="rounded=1;whiteSpace=wrap;html=1;" parent="1" vertex="1">
          <mxGeometry x="411" y="191" width="40" height="40" as="geometry" />
        </mxCell>
        <mxCell id="O-ws_NPDMg6LXlj5JLhv-11" value="" style="rounded=1;whiteSpace=wrap;html=1;" parent="1" vertex="1">
          <mxGeometry x="460" y="191" width="40" height="40" as="geometry" />
        </mxCell>
        <mxCell id="O-ws_NPDMg6LXlj5JLhv-12" value="" style="rounded=1;whiteSpace=wrap;html=1;" parent="1" vertex="1">
          <mxGeometry x="310" y="236" width="40" height="40" as="geometry" />
        </mxCell>
        <mxCell id="O-ws_NPDMg6LXlj5JLhv-13" value="" style="rounded=1;whiteSpace=wrap;html=1;" parent="1" vertex="1">
          <mxGeometry x="360" y="236" width="40" height="40" as="geometry" />
        </mxCell>
        <mxCell id="O-ws_NPDMg6LXlj5JLhv-14" value="" style="rounded=1;whiteSpace=wrap;html=1;" parent="1" vertex="1">
          <mxGeometry x="411" y="236" width="40" height="40" as="geometry" />
        </mxCell>
        <mxCell id="O-ws_NPDMg6LXlj5JLhv-15" value="" style="rounded=1;whiteSpace=wrap;html=1;" parent="1" vertex="1">
          <mxGeometry x="460" y="236" width="40" height="40" as="geometry" />
        </mxCell>
        <mxCell id="O-ws_NPDMg6LXlj5JLhv-16" value="" style="rounded=1;whiteSpace=wrap;html=1;" parent="1" vertex="1">
          <mxGeometry x="310" y="283" width="40" height="40" as="geometry" />
        </mxCell>
        <mxCell id="O-ws_NPDMg6LXlj5JLhv-17" value="" style="rounded=1;whiteSpace=wrap;html=1;" parent="1" vertex="1">
          <mxGeometry x="360" y="283" width="40" height="40" as="geometry" />
        </mxCell>
        <mxCell id="O-ws_NPDMg6LXlj5JLhv-18" value="" style="rounded=1;whiteSpace=wrap;html=1;" parent="1" vertex="1">
          <mxGeometry x="411" y="283" width="40" height="40" as="geometry" />
        </mxCell>
        <mxCell id="O-ws_NPDMg6LXlj5JLhv-19" value="" style="rounded=1;whiteSpace=wrap;html=1;" parent="1" vertex="1">
          <mxGeometry x="460" y="283" width="40" height="40" as="geometry" />
        </mxCell>
        <mxCell id="9jup_bom7WLfg4Qzv4XH-1" value="&lt;font style=&quot;font-size: 18px;&quot;&gt;+&lt;/font&gt;" style="rounded=1;whiteSpace=wrap;html=1;" parent="1" vertex="1">
          <mxGeometry x="416" y="98" width="30" height="30" as="geometry" />
        </mxCell>
        <mxCell id="9jup_bom7WLfg4Qzv4XH-2" value="&lt;font style=&quot;font-size: 18px;&quot;&gt;-&lt;/font&gt;" style="rounded=1;whiteSpace=wrap;html=1;" parent="1" vertex="1">
          <mxGeometry x="465" y="98" width="30" height="30" as="geometry" />
        </mxCell>
        <object label="Save" id="9jup_bom7WLfg4Qzv4XH-5">
          <mxCell style="rounded=1;whiteSpace=wrap;html=1;" parent="1" vertex="1">
            <mxGeometry x="326" y="90" width="60" height="20" as="geometry" />
          </mxCell>
        </object>
        <object label="&lt;font style=&quot;font-size: 9px;&quot;&gt;&lt;i&gt;Current Palette&lt;/i&gt;&lt;/font&gt;" id="9jup_bom7WLfg4Qzv4XH-6">
          <mxCell style="rounded=1;whiteSpace=wrap;html=1;" parent="1" vertex="1">
            <mxGeometry x="311" y="330" width="189" height="18" as="geometry" />
          </mxCell>
        </object>
        <object label="Load" id="9jup_bom7WLfg4Qzv4XH-9">
          <mxCell style="rounded=1;whiteSpace=wrap;html=1;" parent="1" vertex="1">
            <mxGeometry x="326" y="114" width="60" height="20" as="geometry" />
          </mxCell>
        </object>
        <mxCell id="f0jKcIyWlre60cHDJ90i-1" value="" style="shape=image;verticalLabelPosition=bottom;labelBackgroundColor=default;verticalAlign=top;aspect=fixed;imageAspect=0;image=data:image/png,iVBORw0KGgoAAAANSUhEUgAAAQEAAAEzCAIAAAC+PCEMAAAgAElEQVR4Ae1d+3MUx53nPxAVZdfMCC0rid3VSlo9QYBeIJBY70pCaPUK2HKwA7IvFLErKWM4m4eP84VgYp+xYwx3vuNxuSRULhdzdUVsMM7rqq5i7BwpO3c5V0zIVSWVgIWxc7Fz+YHLbO9+d3anp3dmt2eYbn23pqD32z093/58P5/ub69mZxdUpV9q+hUMBpuamjo6Orq6uvqYr158MRHo7FzBrM9VDg4O5t4IXkqlhgcG+iweg4OrbR2fuf8z/YP9pR/r+/vW9q3oXdHa2RqOhYORYLBeO2qiNQuqqqqIABoaGnp7e5tb2uqjsdql9YFgCA9pEKg2iWZ1MEQ7wtVBAY+acDXzqAlF65uaWzqW9Q/2tyxvARksIAJYtmzZ8uUr6pD6JlwRWgyE5dQh0AQQElIAwSIC0MujNhxd2d21sm8lkYGmgYaGhuXLV1AxQqPQCADFzUYBDWgF0ZYC5iKg1wApr+zuIqvBgmAw2NvbW7c0agYT2sVFwCwFghHRqK/PjoSSgU0N1IajawbXhJpCCxobG5tb2gAULMiEQNkaIHoQRAk2NVBdE27pWNba2bqgo6OjPhqTKfA4FusIFFsHhFoT7Gugvql5Rc+KBV1dXfgpkHXSSNbSjgY8v1e2r4GaULR3be+Cvr4+s7g2xtpa2pZbORpjmE0J+VHyPNdAdU24f7B/QW9vr5kGvvHNb1/6j7eoxxuX337j8ttnX/7eS9/Rjn88863FgVqzftDuTQRsCkDCdaC4Bl4+f/Gjj/9g5Th/8XtV1TXejDR6ZUTAFvtXrOpLjoxRjxWrVrv5x4SB9UPRxjbjFaONbQPrh4yfflqxFFkHLlz87n/99/8cfPHil/7+1UMnLzz5D+cPf+3ln/7053PvXf/l1au/vHr1vevXj7/0+vGXXjfTwLtXrpw4eRpiMDd3A95OTG66detWIBh6880f38q+3nzzx8QyN3cDzgoEQ3NzNyYmN+ktWC4ZAVsCqA6GkiNjofpYsK4+WBfVH3XhpuTImJGRzlmijW3r7xwpkEHOaH8/UHwdePXid3/2zq/uf+rsnx359vaj3/rci9986NQ3Ll9+573rv7169RdXr/6CaODFc/9upoETJ08TWgeCIUJ6eAtVb775YxAGiStRxSvnL0CYUQMARfmFEjQQrKtPn1X4IanLGqgOhnOMT9/NUfBWk59NJRRZB1658NrP3vnVYydf/uwL37z72RObvnJs07HnLl9+Z+5aTgOnvv+Dr71+0UwDE5ObYEYnpIe3QH0oQHSJ5datWzD3owYAnPILQmtALwOKAMhtTnZksGZgDWtP/HJaA+OHXkwcfHb46ac3fuXw+PGDsA6QXOiffnLupf88a6YBfRrz7pUr+/YfADZDwUwDJ06efvfKFRJyaFw+A7CHAP0+Of2fAvLKyZEx76wDJNEi7DfmRbk0zLIMimiArAPJJ5/Z8MxTY0cPTfztX33q5F9oGrj2W9gPvP3rt97+9VsMDQDFIfs/cfK0fn3Q7wdIUgSnwHZifmogu0ui/1+OmG0tBaiBX40+ezh17EtTf/fEptP7Z77+WHYdyOyJ//DxR3/4+COGBkgKtG//ATKpk7ewGSA7YON+gFhg3zw/NVAOy9nnCq0BSIGgkJv+uedCZB0Y/5svTp84cNdX9336zJ/f962dly+/c/3ab65e/UU6F7r24YcfvH/jBkMDgWDo1q1br5y/ALSem7sBMz1bA4Fg6JXzF145f+HdK1dgb8COLtZaQUBcDRTwvuBtCXviYrnQq6/95K2fH/rnM0++9PUv/8tXn/7X03997uSPfvST69d+Q3Kh69eu3bz5/nvvvcfWwLtXrugn8rm5G/r9rl4PJH4Fllu3bulPtxJjbMNGwK4G6sKN6VPyPheqWdrg8udCFMbrPymyvAfQf3ZURAPfOf/aH//4fzffn/sgfXz4wc0PP3j/g5tzv//f33380e9/97sPb958/8aNuRs35tgaeOX8Bfg4yPjxv34/QJoVaODEydN6zbCji7VWELClATH+RhYv8W9kRTTw5FNHzl/8nvF49bs/eO37/3bhte9D1Zeffq6qGu+VEOaWIVsa0DXOWwcKs/Db+/XLkhaB6ppwEQ1UL1laVV1bVV1j4aitXrLUygyEbbyAgI7WeR+DFrN7WAP2/zpWXRNeXFQDXogW+uAEAsW4biYMqTSwGDXgBLdE6bNUDRBteFIJ9nMh1IAwubsTuipPA8ZVwgOqsK+BXC40OWH6/QEn0Mc+vYAAbw144KsFJWkgsyf+9I6EF6KCPriJgGwaKFUAGQ1s/sKIm+jjtbyAAGoA/kxW5LNRL0QLfXACAdQAamBeb4jt3jttTTC3dVtcZi7E+E69EzMQ9ukFBKzR2vj5D8MiuAbIY3fxX0RgHiKQ2Q/Mw5HjkBEBggBFAzU1NZFIpMHCa3R0dGpq6t5775114HX33Xdv3Lixr6/PgiOsJo46uXnz5qGhoY6ODu58Ct8Tjj4YjR2IxQ7Sj8bHGiP3R4Krg3Yvvbiq6p6RkRN79lw4cuSHL7xAPS4cOXJiz557RkYWZ3+bwu5VzNonEolUKrVlyxYHKDNbWjgKNVBbWxsKhQKBgNkYiL2xsXF2djaZTG7YsCEejw848BoaGhobG5ucnJyYmKirq2P7Q60Vwkmj54FlgdjBWPOB5rbn2tqPtncc66Ae7c+3tx1pa36iOfr56OLwYmM/VEtTJHJ8924q76nG47t3/+kUald2jZ4NR54GampqQqGQlbHNzs6uW7fOAeZTuhwdHZ2dnbXiVUEbIZws8FlV1djBWMfzdN5TxdD2TFvTF5uM/Rgtf5rUj+/aReU6w3h8924uq4Fnw5GngUgkUnQFUFU1kUgkk0kKWx0zJZPJRCJhDCrDIoSTRv/D94SbDzRTuc4wxv4yFrq7+OR1z8gIg+uMqntGRoyu2rJ4ORx5GmhoaLAysFQqtWHDBscIT+l4w4YNY2NjVnyDNkI4Cd5CIfpgtO25NgbdqVXtz7XXf64eOjErnNizh0F0RtWJPXvM+rRo93I4StHAli1bHNoDUOifNsXj8S1btliEmzQTwknjiGIHYow9AFUAHcc62o+2xw7EjL0VWBibYIYAfvjCCxeOHCnoyu5bL4ejFA3Mzs4ayHrfoUuHd88YzCUZHjh17Pjh8YJT7W4JTJw8duZS+jj30HTBBXi8teukkUnaZsBkE8y2xw4W1wCb6Oxao6u2LLRwDAwM3HeIhOMSJeLFAlL8XIvh0DTQ09NDxmMxF6KNx/saGN997tihhzPATh8+fMYBGVgEncGe+aQBjcTZiNjlj6VzLYZj9brVjmogJ9bsaAcGHt6bmYwv7X0AxD7z0PHsDL3bkXXgvkP6y8F1Byj+PHDq2JlT92WbaOLJrkswHPqiZxH00jRw1xtXr75xl9lqIOY6kMV4YOCBU6AHzahNUtl46cu5E3SlgnOhxmI4HNWATqwaxdO80QSQob42tgzVCloC52A4AxbHA/QyLFYalSlzP9UfzdusPmceOp5ZMQqczDbI+WjbSfAWCox1QGYNAD10YGbpUWyJoJ1LurHIGSc18PBePecoWT40gELad0rLAdv0MmhA6zo9o5jvB3Ju5BKn6cOHM4tArlbrijr3WAQdGG8szDsNaAw+doa+mRzffe7woVNZ/Amv9f+yztXaWQyHwxrIZRRp/mlv0/NxJu05nJliH96bXRAy9MrmHrkRWxwPsIqqAehOy3YyszvNH6KWjLfZtCeXwmU21rnsLtuvXSfBWyjQNHDXSe2pfLrXjZN3GfbNpedCTz74+sDAJXLca/rhKXhYWoEdDsIKY9C1tLn4tk2LIOVcr2hANwAyu2cXuDRrIM3IH6oj68DMeP4HQZntAd0fzbt0A/CQbBt0ks7SPu9/ZzSQ+ZuxbLlQQUTy58E0rFoIdsM6rEe6+Llaa4vhcHIdSH/ylZksIWnTDVU3GRek2hRZWxwPzFKFE0963YSZW6M+0SfdHw1BTYrn9Auxzkn90HSxseskeAsF2jogqwayW0QNQMpcnp0KafsBoJPJuSQmFsNRigbI3Xm60Od90Jv+zCebP+g+AM7yL5d7HDoM282BgUxup6Uoxs+FhoaGNm/eDESxUqA4CZe4BIlQBn3yOVWeP5nPi2AgZLiaDEhj4+JbgpPGgTQ+1tj+vOl9cmYfCrU/3974WKOxtwLLbfwbGSUcA7qgG/4+oJsfyQd3BYFgnUtCZT0cpWiA3NGZrwFn36VSqWQyWRBR9lshnDQOIXJ/pO2I7XslWo+01m/z9L0SXg5HKRpYtmzZ5OSks6zP731qasruPfpCOGnUQM3qmuYn7N8z90Qs2Fv8iwS38Z45L4ejFA2oqjoxMTE6OppPVKfebdq0aXJy0kiXohYhnDSOIvr5aNszNpaC1qdao1+IGvsxWrR7p+18eYDcPcHr3mnPhqNEDdTV1bnwHZpUKjU9PV2aAFRVFcJJClPDi5u+2KTdPPdcO+P+ufbn21uPtMaeiFkUALnQbfwOjWfDUaIGCKB33nnn2NiYc9+LSyaTdlMgI6WEcNLodmgmVP+5evZ3Keu31Qf7iqdABZ3f3u9SejAcZWmgAFy531q8oVBuEKQcHWrAalhRA1aREq1dngYsfpdStDFy8DcQCEQ4fbWcgzfYBVcE8jQQDAYtfqeeqw8CdBYOh5csWSKAo+iifQTyNKCqqsVnq9i/kKhnBAKBcDhcW1sr6gDQ72IIFGpAVdVgMBiJRPrwlUYgEongClCMRWLXUzQg9oDQe0TAJgKoAZuAYXPpEEANSBdSHJBNBFADNgHD5tIhoGmgP/tsFelGhwNCBIojoGngrvvWFW+ILRABSRHQNDD94JCko8NhIQLFEXBQA/HxlN/v9/l823bt9KVf61NjJRfWj230+Xx+v39N0t4DqNkYoJNsfKzXCoEkdTjpXIj3OqAoSmVlZf/wUIUDr/jEeGVlpaIo1PFYN6KT8wpJBjHS68DmNYwWdqsSUxODYxsdIH9el/Hx1MyO7XZ9g/boJKA5H5CEuFMLmgbgmbvUFraMiqK4IAASv2hLS2mrAToJApgPSBYlMGcNVFZWFuDr6NvKysqiIzQ2QCeNQZEYSSMBCiw8NRAfTzm0BzDGjFj6R4bXj20sGBL7LTpJBVNWJNlkILU8NeD3+6n4Omr0+/1Wxglt0EmzcEiJJMSdUeCpAZ/PZ4avc3afz8cYnrEKnTSLhZRIGglgtKxey29PvG3XTjN8HbKvHRne+shO46gYFnSSGgtZkWQwAap4agCnWCq9KioqpJxihQg3EJ1RQA2Y8ZanHTXAC027SDKoD1U8NbA+NcZrqBb7WTsyvD5l73eL0UkqtrIiCURnFHhqQIjFEZ2kakDWhI1BfahCDZhRgqfd7gqOQjVD3y6SQHRGgacGMM2gRk7WNEOIcDOoD1V9a/u43S+EsxdVA7KmGUKEG4jOKKAGzHjL0253BReCXkI4yaA+VPHUgBCLIzpJFbesCRsQnVHgqQEhJgZ0kqoBWRM2BvWhCjVgRgmedsyFeKFpF0kgOqPAUwOYZlAjLWuaIUS4GdSHKp4awDSDqgFZ0wwhwg1EZxRQA2a85Wm3u4ILQS8hnGRQH6p4akCIxRGdpIpb1oQNiM4o8NSAEBMDOknVgKwJG4P6UIUaMKMETzvmQrzQtIskEJ1R4KkBTDOokZY1zRAi3AzqQxVPDWCaQdWArGmGEOEGojMKqAEz3vK0213BhaCXEE4yqA9VPDUgxOKITlLFLWvCBkRnFHhqQIiJAZ2kakDWhI1BfajiqYH1zj9q1xg/u8+ZQyeNGBKLlEgC0RkFnhrAKdaMXrgfMEPGrt0ukgzqQxVPDeBjDM0iKuVjDIUINxCdUdA00N3dzWhhvao/mYhPjJvxwAl7YnpydTxu3UNVVdFJaiBkRdIKN3hqQFVVfKy5kWESP9ZciHAXlQFnDSiKsnDhQiMPnLA0trWW/Bsc6KQ+InIj6bYGVFUdmp6KtrS0dHbqUeZebmxr3b5vb9HhmTVAJyEi8wFJMxoQO+d1gHSqKMrU7FaCsrK4au3IMCmXWSCdJKYnef0mHzo5f5BkyMARDYAS/H7/jsf3l/OTrD6fj5wOv81qdxPMGLyqqoqioJNsiCzWCoEkdSwOaoB6PTQiAl5DADXgtYigP24j0NfP7+8DbvuO10MEeCCAGuCBIvYhMgKoAZGjh77zQAA1wANF7ENkBFADIkcPfeeBAGqAB4rYh8gIoAZEjh76zgMB1AAPFLEPkRFADYgcPfSdBwIOaiA+nvL7/T6fb9uunb70q5wbh+B+oTXJBI+BZ/pAJ3mBKQSS1ME6ogFFUSorK/uHh+AGXY6F+MQ4r7sd0cn5gySV/cTIXwOJqYlB5x8wER9PzezYzhgYuwqdhFlpPiDJJoOmgdENfL5PTG5FdkEAJH7RlpaSv0eGToIGKioq5EaSLQBVVTUNfGrrYNF2FhsI8QVTdFIvAFKW+EvPRamraWDis3cWbWelQXw85dAewBgzYukfGbb7ZCh0kgqmrEha4S3P/YAQD5xBJ6kaqKiokPIhSG5rAJ8zZ0Yvu09HQyR5Iem2Brbt2mnmukP2tSPDWx/ZaWWc0AadpMZCViQh7owCz1wIZy8qvWR9pLMQ4WZQH6pQA2a85WnHXIgXmnaRBKIzCjw1gD9vQY20rD9vIUS4GdSHKp4aEGJxRCepQpU1YQOiMwqoATNK8LTbXcFRqGbo20WSQX2o4qkBIRZHdJJKL1kTNiA6o8BTAzh7Uekla5ohRLgZ1Icq1IAZb3na7a7gQtBLCCeB6IxCb38vt9+hwTSDqhtZ0wwhws2gPlTx1IAQEwM6SRWqrAkbEJ1RQA2YUYKnHXMhXmjaRZJBfajiqQEhFkd0kkpHWRM2IDqjwFMDmGZQ6SVrmiFEuBnUhyrUgBlvedrtruBC0EsIJ4HojAJPDWCaQdWNrGmGEOFmUB+qeGpAiIkBnaQKVdaEDYjOKKAGzCjB0465EC807SLJoD5U8dSAEIsjOkmlo6wJGxCdUeCpAUwzqPSSNc0QItwM6kMVasCMtzztdldwIeglhJNAdEaBpwYwzaDqRtY0Q4hwM6gPVTw1IMTEgE5ShSprwgZEZxR4amC984/aNcbP7nPm0EkjhsQiJZIM6kMVTw3gFGtGL9wPmCFj124XSSA6o8BTA/gYQ7OISvkYQyHCzaA+VPHUQH8yEZ8YN+OBE/bE9OTqeBwGY6WATlIDISuSVijBUwOqquJjzY0Mk/ix5kKEu6gMOGtAUZSFCxcaeeCEpbGtteTf4EAn9RGRG0m3NaCq6tD0VLSlpaWzU48y93JjW+v2fXuLDs+sAToJEZkPSJrRgNg5rwOkU0VRpma3EpSVxVVrR4ZJucwC6SQxPcnrl+TQyfmDJEMGjmgAlOD3+3c8vr+cn2T1+XzkdPhtVrubYMbgyQ+ooZNsiCzWKorifSSpY3FQA9TroRER8BoCqAGvRQT9cRsB1IDbiOP1vIaApoGuri6vuYX+IAKuIYAacA1qvJBHEUANeDQw6JZrCKAGXIMaL+RRBFADHg0MuuUaAqgB16DGC3kUAdSARwODbrmGAGrANajxQh5FoHcN/n3Ao6FBt1xCwEENxMdTfr/f5/Nt27XTl36Vc/Mc3DO3JpngiA06yQtMIZCkDtYRDSiKUllZ2T88BDepcyzEJ8Z53fGLTs4fJKnsJ0b+GkhMTQw6/5CV+HhqZsd2xsDYVegkzErzAUk2GThrQFEUFwRA4hdtaSn5u5ToJGigoqJCbiTZAlBVlbMGhPiSNTqpFwApS/zFf1c1EB9PObQHMMaMWPpHhu0+HQ2dpIIpK5JFBcB5HRDioUvoJFUDFRUVUj4IzG0N4LMWzehl9wmBiCQvJN3WwLZdO81cd8i+dmR46yM7rYwT2qCT1FjIiiTEnVHguSfG2YtKL1kfay5EuBnUhyrUgBlvedoxF+KFpl0kgeiMAk8NCPHDJOgklY6y/lgOg/pQxVMDQiyO6CRVA7ImbEB0RgE1YEYJnna7KzgK1Qx9u0gyqA9VPDWAaQY1crKmGUKEG4jOKPDUAM5eVA3ImmYIEW4G9aEKNWDGW552uyu4EPQSwkkgOqPAUwNCLI7oJFXcsiZsDOpDFU8NCDExoJNUDciasAHRGQXUgBkleNoxF+KFpl0kGdSHKp4awDSDGmlZ0wwhwg1EZxR4agDTDKoGZE0zhAg3g/pQhRow4y1Pu90VXAh6CeEkEJ1R4KkBIRZHdJIqblkTNgb1oYqnBoSYGNBJqgZkTdiA6IwCasCMEjztmAvxQtMukgzqQxVPDWCaQY20rGmGEOEGojMKPDWAaQZVA7KmGUKEm0F9qEINmPGWp93uCi4EvYRwEojOKPDUgBCLIzpJFbesCRuD+lDFUwNCTAzoJFUDsiZsQHRGgacG1jv/qF1j/Ow+Zw6dNGJILFIiyaA+VPHUAE6xZvTC/YAZMnbtdpEEojMKPDWAjzE0i6iUjzEUItwM6kMVTw30JxPxiXEzHjhhT0xPro7HYTBWCugkNRCyImmFEjw1oKoqPtbcyDCJH2suRLiLyoCzBhRFWbhwoZEHTlga21pL/g0OdFIfEbmRdFsDqqoOTU9FW1paOjv1KHMvN7a1bt+3t+jwzBqgkxCR+YCkGQ2InfM6QDpVFGVqditBWVlctXZkmJTLLJBOEtOTvH5JDp2cP0gyZOCIBkAJfr9/x+P7y/lJVp/PR06H32a1uwlmDF5VVUVR0Ek2RBZrhUCSOhYHNUC9HhoRAa8hgBrwWkTQH7cRQA24jThez2sIoAa8FhH0x20EUANuI47X8xoCqAGvRQT9cRsB1IDbiOP1vIYAasBrEUF/3EYANeA24ng9ryGAGvBaRNAftxFADbiNOF7Pawg4qIH4eMrv9/t8vm27dvrSr3JuHIL7hdYkExxBRCd5gSkEktTBOqIBRVEqKyv7h4fgBl2OhfjEOK+7HdHJ+YMklf3EyF8DiamJQecfMBEfT83s2M4YGLsKnYRZaT4gySYDZw0oiuKCAEj8oi0tJX+PDJ0EDVRUVMiNJFsAqqpy1oAQXzBFJ/UCIGWJv/Tsqgbi4ymH9gDGmBFL/8iw3SdDoZNUMGVFsqgAOK8DQjxwBp2kaqCiokLKhyC5rQF8zpwZvew+HQ2R5IWk2xrYtmunmesO2deODG99ZKeVcUIbdJIaC1mRhLgzCjz3xDh7Uekl6yOdhQg3g/pQhRow4y1PO+ZCvNC0iyQQnVHgqQH8eQtqpGX9eQshws2gPlTx1IAQiyM6SRWqrAkbEJ1RQA2YUYKn3e4KjkI1Q98ukgzqQxVPDQixOKKTVHrJmrAB0RmFnjU9C7q6uhgtrFfh7EWll6xphhDhtsJe1IAZb3na7a7gQtBLCCfd1gCmGVTdyJpmCBFutzUgxMSATlKFKmvChhqgIIAaQA0U0ILnfkCIxRGdpGpA1oStgO7Utzw1gFMslV6yphlChJtK+gIjasCMtzzt+LkQLzTtIllAd+pbnhrANIMaaVnTDCHCTSV9gZGnBoRYHNFJqlBlTdgK6E59ixowowRPu90VHIVqhr5dJKmkLzDy1IAQiyM6SaWXrAlbAd2pb3lqAGcvKr1kTTOECDeV9AVG1IAZb3na7a7gQtBLCCcL6E59y1MDmGZQdSNrmiFEuKmkLzDy1IAQEwM6SRWqrAlbAd2pb3lqYL3zj9o1xs/uc+bQSSOGxCIlklTSFxh5agCnWDN64X7ADBm7drtIFtCd+panBvAxhmYRlfIxhkKEm0r6AiNPDfQnE/GJcTMeOGFPTE+ujscLhsR+i05SAyErkmwykFqe36lXVRUfa25kmMSPNRci3EVlwFkDiqIsXLjQyAMnLI1trSX/Bgc6qY+I3Ei6rQFVVYemp6ItLS2dnXqUuZcb21q379tbdHhmDdBJiMh8QNKMBsTOeR0gnSqKMjW7laCsLK5aOzJMymUWSCeJ6UlevySHTs4fJBkycEQDoAS/37/j8f3l/CSrz+cjp8Nvs9rdBDMGr6qqoijoJBsii7VCIEkdi4MaoF4PjYiA1xBADXgtIuiP2wigBtxGHK/nNQRQA16LCPrjNgKoAbcRx+t5DQHUgNcigv64jQBqwG3E8XpeQwA14LWIoD9uI4AacBtxvJ7XEEANeC0i6I/bCKAG3EYcr+c1BFADXosI+uM2AqgBtxHH63kNAdSA1yKC/riNAGrAbcTxel5DADXgtYjcTn9qamoikUhDSa9IJBIMBm+n96VeGzVQKnLSnVdbWxsKhQKBQGkjCwQCoVCotra2tNNv41mogdsIvocuXVNTEwqFyncoFAoJtxpQNLAfXx5AoHw62uohEomUvALoLxQIBCKRiN7i/TJdA973W24P9+/f7/IAGxoaeF2RY1e8XGL3gxpg43N7alEDbuKOGnATbavXQg1YRYpHO9QADxR594Ea4I0oqz9LGpg5eunso32sbmSs63v07KWjM7dlZKgBN2G3oIG+R8+Wo4CZo5cuXdI0pBXSnCqzQ4DHXj8zR60yeuZoZrz2LgB+lV/wkgZI/LQYpl/FZwUJ98RlEoFCvTJ7BIrZ64fiCPSUXwANqPaukN9LOe88pgHdFKgpQveWNkgJNZDjjsaIo0fPGuYDmCkKwdGyiczr6EyOUHpmwbmGSRpqcr2CybieFFSpqgoW7XzwJNsZ1MJ1s5azjz6aXQfSnRSf+GhEKM/mXQ2oaSiZmMinAR1hNSJlOJTLlXMlOmPyJZTeVUCXUCCU1SObq8qWsv9r7CKdggUK+io9ubWec47k1EhrrxtlOuBZ1ZTHantne1kDeejRhiW7BoAQwCgo5LiZB0yuHpgKhezUm1kroPNMV5cy+wfSn7Exo5/cVcEZncnQ1Sb9lge6VVEDZJLIC0zRhUA+DejmTz05sozSLwN5c9i9vucAAAK0SURBVG2We9mGOj5l+8k/N3tC3v+Erdo0Tmls3g+lcf44YJHIXC3npc5PogH96pTnm4NvcB1wEFxD18U/F8oyLZ8cQBo93cCou0zOBh3pC0DG/M9fdb1mi9n/tb5JY0Y/xsY6DeTpCbrKeqKdmp344Aq6AblR9LIG9NBSsZBwHcjlf3pG5KidZiTJZrLU0UOTawinQ4GwObdr1p+nQV1Yk8th0pMzu5+Cxlk3M9O6oVbTSPql2xPrL6D3zfGydzWgoUQLsw4SGTWQnXZ1w5wXxaITnnMoeEwD2clI+794aiinBpwLNvZMRcBLGqA6yDKiBljoYJ1FBFADFoHi0qz4npjLZbATWwigBmzBVWZj1ECZADpyOmrAEVhNOqVrwAPfJZzvLpjEyykzfpeyyylosV9BEAgGg1y+Ux8Oh5csWSLIoDNuautAZ2dndXW1WH6jt9wRKP/ZKuFwWLhnqwQCgVU9qxY0NzcvXbqUO6bYoXAIBIPBSCTSV9IrEokItwKoqhoKh9qXty8Ih8PCfaYrHL3QYW8i0BRramhuWKCq6qpVq7g8Xsab40SvEAEqAkuWLOlZ3ROoCyxQFCUajXZ0dFDboRERkBWBjuUd9U31i6oXaRpYtGhRR/olYkona4RwXM4hsGTJkvZl7e2d7XdU36Fp4JOf/GRl+rV06dJVq1Y1NDTU1dXhJ0XOBQB7vl0IVAeql4aWNsYau/u6I02ROxZrAlgU0GngE5/4hKIooVAoFostX758Vfq10sXXCgFfnSavjo5lJjWF5u7u7kKT4b0ZML2DG5LDmWOgT9eq786sfai/K2fvGxxNDqePxKDOnGtQZmndujXd3SvJ0dOzsuxjVU9P7hhNjXb1dOUdvV1dzKO7tztz9HV393Wv6FrRuqy1PlZfXVN9x+I7yCKwKLDo/wFms1SY3eUL8AAAAABJRU5ErkJggg==;" vertex="1" parent="1">
          <mxGeometry x="650" y="66.5" width="257" height="307" as="geometry" />
        </mxCell>
      </root>
    </mxGraphModel>
  </diagram>
</mxfile>
